<svg width="32" height="32" viewBox="0 0 32 32" fill="none" xmlns="http://www.w3.org/2000/svg">
  <!-- Background circle -->
  <circle cx="16" cy="16" r="15" fill="#4F46E5" stroke="#3730A3" stroke-width="2"/>
  
  <!-- Main coin/token in center -->
  <circle cx="16" cy="16" r="6" fill="#FCD34D" stroke="#F59E0B" stroke-width="1.5"/>
  
  <!-- Dollar sign -->
  <path d="M14.5 12v8M17.5 12v8M16 10.5v11" stroke="#1F2937" stroke-width="1.5" stroke-linecap="round"/>
  <path d="M13 13.5h6c.83 0 1.5.67 1.5 1.5s-.67 1.5-1.5 1.5h-3c-.83 0-1.5.67-1.5 1.5s.67 1.5 1.5 1.5h6" stroke="#1F2937" stroke-width="1.5" stroke-linecap="round" stroke-linejoin="round"/>
  
  <!-- Connection lines representing network -->
  <line x1="6" y1="10" x2="10" y2="12" stroke="#FCD34D" stroke-width="2" stroke-linecap="round"/>
  <line x1="22" y1="12" x2="26" y2="10" stroke="#FCD34D" stroke-width="2" stroke-linecap="round"/>
  <line x1="10" y1="22" x2="6" y2="24" stroke="#FCD34D" stroke-width="2" stroke-linecap="round"/>
  <line x1="26" y1="24" x2="22" y2="22" stroke="#FCD34D" stroke-width="2" stroke-linecap="round"/>
  
  <!-- Small nodes representing lenders/borrowers -->
  <circle cx="6" cy="10" r="2" fill="#FCD34D"/>
  <circle cx="26" cy="10" r="2" fill="#FCD34D"/>
  <circle cx="6" cy="24" r="2" fill="#FCD34D"/>
  <circle cx="26" cy="24" r="2" fill="#FCD34D"/>
</svg> 